<?xml version="1.0" encoding="utf-8"?>
<!-- Generator: Adobe Illustrator 16.0.0, SVG Export Plug-In . SVG Version: 6.00 Build 0)  -->
<!DOCTYPE svg PUBLIC "-//W3C//DTD SVG 1.1//EN" "http://www.w3.org/Graphics/SVG/1.1/DTD/svg11.dtd" [
	<!ENTITY ns_extend "http://ns.adobe.com/Extensibility/1.0/">
	<!ENTITY ns_ai "http://ns.adobe.com/AdobeIllustrator/10.0/">
	<!ENTITY ns_graphs "http://ns.adobe.com/Graphs/1.0/">
	<!ENTITY ns_vars "http://ns.adobe.com/Variables/1.0/">
	<!ENTITY ns_imrep "http://ns.adobe.com/ImageReplacement/1.0/">
	<!ENTITY ns_sfw "http://ns.adobe.com/SaveForWeb/1.0/">
	<!ENTITY ns_custom "http://ns.adobe.com/GenericCustomNamespace/1.0/">
	<!ENTITY ns_adobe_xpath "http://ns.adobe.com/XPath/1.0/">
]>
<svg version="1.1" id="Layer_1" xmlns:x="&ns_extend;" xmlns:i="&ns_ai;" xmlns:graph="&ns_graphs;"
	 xmlns="http://www.w3.org/2000/svg" xmlns:xlink="http://www.w3.org/1999/xlink" x="0px" y="0px" width="1000px" height="1000px"
	 viewBox="0 0 1000 1000" enable-background="new 0 0 1000 1000" xml:space="preserve">
<metadata>
	<sfw  xmlns="&ns_sfw;">
		<slices></slices>
		<sliceSourceBounds  width="551.452" height="825.922" x="231.459" y="-912.519" bottomLeftOrigin="true"></sliceSourceBounds>
	</sfw>
</metadata>
<g>
	<path d="M781.562,612.684c-0.312-4.816-2.211-12.639-5.697-23.468c-0.43-1.957-0.699-3.966-0.807-6.026
		c-0.547,0.083,0.107-8.359,1.964-25.327c0.161-2.997,0.067-6.25-0.28-9.757c-0.37-3.238-1.067-6.573-2.092-10.004l-5.563-15.134
		c-0.774-2.976-1.269-6.028-1.479-9.155c-0.18-2.101,0.035-4.825,0.646-8.176c3.041-11.42,4.636-18.301,4.783-20.642
		c0.554-3.203,0.677-6.338,0.371-9.403c-0.326-3.113-1.062-6.026-2.208-8.739c-6.695-13.152-11.481-24.213-14.357-33.183
		c-1.087-2.351-2.342-4.492-3.763-6.422c-6.022-7.992-13.009-12.782-20.953-14.392c1.494-4.777,2.193-8.807,2.088-12.079
		c-0.437-18.15-1.141-28.897-2.109-32.238c-0.59-4.92-3.868-12.275-9.834-22.064l2.319-29.497c0.18-0.958,0.015-3.128-0.482-6.472
		l1.461-0.58c1.185-0.588,2.46-1.53,3.827-2.822c3.219-3.274,5.96-7.384,8.226-12.328c5.593-13.093,11.888-26.973,18.884-41.639
		c2.046-4.653,3.775-8.98,5.188-12.982c8.741-25.055,14.444-45.311,17.11-60.771c4.021-18.079,2.85-43.446-3.516-76.104
		c-2.46-10.112-8.502-15.673-18.126-16.683l-0.23-0.001c-15.418,2.561-25.7,5.55-30.845,8.966
		c-1.029-0.477-15.4,9.657-43.115,30.403c-10.203,9.214-17.653,22.384-22.368,39.492c-0.304-0.413-0.6-0.756-0.887-1.009
		c-2.382-3.534-8.086-7.663-17.111-12.384c-2.888-1.363-5.976-2.432-9.265-3.207c-12.414-1.712-18.626-2.881-18.638-3.505
		c-1.127,0.09-7.263-3.639-18.406-11.186c-3.276-1.713-6.777-3.006-10.503-3.878c-3.089-2.237-18.214-1.653-45.378,1.752
		c-8.276,1.047-15.664,3.874-22.162,8.709C515.352,130.606,505.104,126,487.506,126h-0.601c-3.166-1-19.023,0.792-47.567,4.875
		c-5.121,0.517-11.748,3.206-19.882,7.955c-10.273-2.532-20.709-1.733-31.308,2.338c-6.157,1.828-11.353,5.788-15.589,11.854
		c-1.403,1.816-2.505,3.351-3.317,5.043c-1.473-0.562-2.801-1.064-3.972-1.064h-0.189c-3.848,1-9.151,4.075-15.899,9.808
		c-2.537-4.645-7.472-12.098-14.812-22.598c-3.856-5.143-8.189-9.4-13-12.882c-5.008-3.725-10.143-7.004-15.405-9.897l-18.688-8.589
		l-21.66-11.69C261.079,98.953,256.72,99,252.541,97h-0.055c-5.113,2-9.388,2.939-12.826,7.257
		c-2.978,4.871-5.191,11.957-6.641,20.826c-1.438,6.132-1.881,19.597-1.33,40.18c0.8,11.851,2.285,21.988,4.456,30.305
		c1.364,5.422,3.424,11.149,6.179,17.128l8.652,17.1c5.999,14.129,9.173,21.378,9.522,21.733c1.701,3.458,3.933,7.104,6.697,10.93
		c6.865,9.732,13.042,16.621,18.53,20.664c1.045,0.778,2,1.345,2.886,1.748c1.44,2.027,2.905,3.595,4.394,4.705
		c-4.132,4.411-7.042,9.901-8.716,16.48c-2.445,13.791-2.367,26.384,0.233,37.78c-8.558,5.878-12.608,14.429-12.151,25.653
		c0.306,2.429,0.999,5.004,2.082,7.729c5.267,10.119,7.977,15.972,8.13,17.56c0.342,1.098,0.589,2.334,0.739,3.708
		c0.245,5.585,0.528,9.555,0.852,11.906c0.229,1.782,0.799,3.747,1.709,5.896c0.97,2.212,2.201,4.107,3.694,5.686
		c0.131,0.277,0.543,0.593,1.214,0.944c-0.152,0.506-0.307,1.01-0.42,1.537c-1.963,9.484-3.259,18.664-3.889,27.537
		c-0.14,2.593-0.152,5.424-0.036,8.497c0.043,1.876,0.358,6.962,0.942,15.254c0.101,2.102,0.151,4.038,0.151,5.811
		c0.011,5.959-0.25,12.618-0.784,19.974c-0.015,2.021,0.012,5.17,0.082,9.446c-0.025,2.103,0.226,7.638,0.752,16.607l0.248,15.592
		c0.249,7.843,0.512,14.541,0.79,20.094c0.059,1.807,0.07,3.649,0.033,5.529c-0.096,3.98-0.343,9.11-0.741,15.385l-2.403,22.821
		c-0.305,3.15-0.539,6.154-0.702,9.012c-0.13,2.229-0.226,4.293-0.287,6.191c-0.117,8.07-0.309,15.313-0.578,21.729l-1.458,26.388
		c-0.18,3.348-0.28,6.854-0.302,10.521c-0.02,5.375,0.041,10.318,0.18,14.828l1.666,49.753c0.151,17.093,0.171,27.056,0.061,29.891
		c-0.073,3.938-0.213,9.281-0.419,16.029l-0.946,26.381c-0.1,3.342-0.157,7-0.173,10.972c-0.077,9.323,0.303,22.058,1.139,38.202
		c1.214,20.378,2.034,30.005,2.461,28.885c1.074,4.605,3.421,8.106,7.04,10.499c0.071,0.271,0.059-0.036-0.037-0.92
		c2.277-2.9,3.735-5.136,4.375-6.704c0.705-1.606,1.071-3.169,1.099-4.685c0.001-1.15-0.082-3.297-0.247-6.439
		c-0.896-13.424-1.379-21.812-1.451-25.163c-0.567-16.13-0.883-27.888-0.95-35.271c-0.053-2.941-0.036-6.392,0.049-10.35
		c0.665-18.433,1.089-33.066,1.272-43.901c0.146-7.539,0.231-16.073,0.257-25.604c0.007-2.657-0.016-5.19-0.068-7.601l-0.333-9.319
		c-0.112-7.408-0.412-20.153-0.901-38.234c-0.067-2.735-0.091-7.545-0.07-14.428c0.005-1.505,0.08-3.465,0.223-5.881
		c1.03-15.126,1.592-23.952,1.686-26.479c0.312-6.066,0.558-13.755,0.739-23.067c0.097-2.497,0.209-4.657,0.336-6.483
		c0.167-2.638,0.403-5.42,0.709-8.345l2.515-22.316c0.218-2.355,0.361-4.665,0.427-6.929c0.273-8.186,0.37-13.452,0.29-15.801
		c-0.446-10.759-0.672-16.87-0.68-18.331c-0.042-1.697-0.068-3.535-0.078-5.516c0.045-6.49,0.05-10.359,0.015-11.607
		c0.014-0.838-0.113-4.492-0.382-10.963c-0.033-1.136-0.051-2.365-0.056-3.687c0.026-6.573,0.069-10.271,0.129-11.092l0.957-13.136
		c0.143-2.619,0.23-5.888,0.264-9.805c0.045-2.124,0.031-3.973-0.039-5.546c-0.452-6.489-0.651-9.915-0.599-10.278
		c-0.063-1.976-0.091-4.781-0.083-8.415c-0.003-1.164,0.118-2.976,0.362-5.433l1.843-16.323c0.207-2.243,0.313-3.982,0.319-5.216
		c0.007-2.213-0.124-4.17-0.389-5.879c0.777-1.373,1.06-2.525,0.831-3.452c0.137-0.208-1.172-3.226-3.927-9.052l-1.285-12.807
		c-0.337-2.346-0.818-4.461-1.445-6.346c-0.789-3.084-3.943-9.469-9.461-19.153c-0.71-1.515-1.087-3.109-1.131-4.782
		c-0.041-1.402,0.233-2.759,0.825-4.071c4.471-4.999,6.672-7.684,6.605-8.057c1.333-2.231,2.32-4.883,2.958-7.955
		c0.385-2.079,0.524-3.957,0.416-5.634c-1.09-8.318-1.547-14.157-1.373-17.515c0.034-6.018,0.449-10.59,1.245-13.717
		c0.813-3.174,2.006-5.688,3.579-7.542c0.616-1.175,3.745-4.06,9.386-8.656c1.269-1.343,2.214-2.735,2.836-4.176
		c0.451-1.097,0.717-2.088,0.799-2.973c0.885-11.198,1.495-17.142,1.829-17.832c0.646-3.691,1.749-7.89,3.308-12.596
		c2.033-6.137,4.493-11.388,7.381-15.753c0.819-1.714,3.893-4.424,9.222-8.131c0.948-0.979,1.701-2.131,2.257-3.458
		c0.726-1.654,1.239-3.692,1.539-6.114c0.089-7.443,0.466-12.592,1.131-15.448c0.749-3.573,2.087-7.254,4.015-11.044
		c2.264-4.101,4.902-7.686,7.914-10.753c3.67-3.973,9.398-8.873,17.184-14.701c0.532-0.486,0.996-0.998,1.418-1.527
		c2.874-0.205,4.737-0.584,5.538-1.148l11.184-10.524c0.972-0.646,4.44-1.618,10.403-2.916l6.228-0.988
		c9.141,1.068,14.109,1.327,14.904,0.777c1.868-0.298,3.691-0.801,5.469-1.509c6.681-3.941,11.229-5.933,13.645-5.976
		c28.986-4.525,45.585-6.232,49.795-5.122c4.107,0.008,8.344,0.625,12.712,1.852c2.937,4.5,5.768,7.841,8.495,10.022
		c1.59,1.324,3.989,2.096,7.198,2.316c1.971,0.04,3.86-0.253,5.67-0.879c7.164-4.393,12.842-6.734,17.033-7.023
		c27.234-2.862,40.807-3.545,40.717-2.049c2.979,0.622,5.376,1.445,7.188,2.471c10.896,7.428,17.222,11.296,18.978,11.604
		c1.614,1.303,9.85,3.173,24.702,5.608c3.398,1.006,7.605,3.323,12.619,6.95c1.459,1.013,2.61,2.164,3.457,3.457
		c2.749,8.857,4.742,13.712,5.979,14.565c0.774,1.619,4.591,5.091,11.448,10.416l8.991,12.154l2.837,5.972
		c1.139,7.605,2.379,12.413,3.721,14.422c0.042,1.255,3.467,5.682,10.276,13.28l1.186,2.83c0.292,0.92,0.649,1.757,1.06,2.526
		l0.325,0.776c2.057,8.176,3.569,15.597,4.539,22.264c2.664,7.018,4.267,11.949,4.808,14.793l4.17,22.62
		c1.044,2.508,0.138,12.527-2.721,30.057l0.357,7.542c0.295,3.297,2.812,9.186,7.552,17.667c0.921,2.588,1.479,5.329,1.675,8.224
		l0.623,25.992c-2.115,7.166-3.474,12.304-4.075,15.416c-5.684,2.689-11.003,6.664-15.951,11.95l-15.629,20.441
		c-1.069,1.432-2.033,2.987-2.893,4.665c-1.717,3.315-2.772,6.599-3.216,9.853c-3.39-1.851-7.508-4.056-12.392-6.636
		c-4.036-1.916-7.932-3.169-11.685-3.764l-20.356-0.443c-8.945-1.023-16.806-3.015-23.582-5.614
		c-2.021-0.395-4.024-0.782-6.009-0.782h-0.003c-0.218,0-0.421,0.191-0.633,0.195c1.133-4.876-0.582-9.072-5.158-12.762
		l-0.109,0.033c-0.248-0.079-0.489,0.353-0.724,1.249c-3.895,1.221-6.574,2.602-8.041,4.116c-0.339,0.353-0.604,0.724-0.792,1.104
		c-1.506,3.799-2.513,6.117-3.021,6.947c0.083,0.036-1.079,1.808-3.487,5.316c-1.426,2.088-3.393,3.598-5.901,4.53
		c-0.643,0.222-1.332,0.393-2.07,0.511c-6.774,0.871-11.071,1.472-12.888,1.807c-1.46,0.198-3.039,0.292-4.737,0.286
		c-1.663,0.035-5.253-0.247-10.771-0.844l-2.817-0.406c-2.186-0.632-3.806-1.057-4.884-1.281c-0.034-0.227-0.078-0.454-0.099-0.683
		c-0.198-1.913-0.24-3.975-0.122-6.187c0.037-0.712,0.095-1.487,0.176-2.325l0.809-7.735c0.159-1.955,0.235-3.485,0.228-4.59
		c0.066-0.072-0.063-2.884-0.39-8.439c-0.112-1.424-0.31-2.809-0.592-4.153c-0.301-1.439-0.632-2.696-0.996-3.766
		c-0.151-0.433-0.37-0.801-0.655-1.104c-0.23-0.266-0.558-0.472-0.928-0.651c-0.032-0.047-0.056-0.088-0.09-0.135
		c-1.569-1.957-3.057-3.034-4.458-3.034h-0.004c-2.13,0-3.443,1.803-3.938,4.273c-0.129,0.751-0.202,1.524-0.219,2.331
		c-0.021,0.305,0.024,1.192,0.139,2.664l-0.025,1.699c-0.517,5.617-0.78,9.033-0.791,10.248l-0.184,8.881
		c-0.113,1.87-0.404,3.74-0.874,5.61c-0.366,1.392-0.93,2.913-1.65,4.534c-0.032,0.014-0.071,0.026-0.104,0.039
		c-0.317,0.143-0.573,0.296-0.764,0.46c-0.927,1.163-2.313,2.416-4.161,3.76c-1.255,1.004-2.422,1.647-3.504,1.932
		c-0.619,0.201-1.457,0.416-2.514,0.646l-9.137,1.903c-1.721,0.327-3.354,0.471-4.897,0.431c-3.586-0.066-7.028-0.322-10.324-0.77
		c-5.83-0.808-9.708-1.548-11.633-2.221c-1.248-0.411-2.429-0.903-3.575-1.438c-1.414-1.021-2.625-2.106-3.615-3.256
		c-0.459-0.532-0.888-1.091-1.283-1.677l-2.24-3.61c-2.168-3.048-3.509-5.012-4.022-5.892c-1.552-2.421-3.633-6.328-6.245-11.721
		c-0.541-0.917-0.98-1.377-1.32-1.381l-0.035-0.002c-0.441-0.039-0.923,0.836-1.446,2.625c-0.771,2.76-1.323,5.499-1.659,8.221
		c-0.646,5.144-0.565,9.194,0.242,12.149c0.256,0.844,0.604,1.657,0.994,2.455c-1,0.017-2.038,0.049-3.126,0.105
		c-12.669,1.415-19.822,2.456-21.459,3.122c-11.491,3.055-21.285,6.286-29.382,9.693c-22.539,11.367-33.952,17.734-34.239,19.101
		c-7.868,8.686-12.144,16.899-12.829,24.642c-0.292,13.337,5.261,23.516,16.658,30.536c3.159,1.577,6.084,2.691,8.788,3.362
		c-0.025,0.027-0.055,0.051-0.079,0.078c-0.973,0.703-1.239,2.761-0.801,6.177c0.893,6.684,4.612,11.841,11.157,15.472
		c7.218,3.925,12.607,6.239,16.167,6.944c1.41,0.339,2.912,0.588,4.508,0.746c0.692,0.117,4.518,0.43,11.477,0.938
		c1.57,0.149,3.095,0.347,4.575,0.592c1.396,0.234,2.758,0.5,4.086,0.799c4.148,1.078,9.603,2.333,16.366,3.767
		c1.189,0.253,2.207,0.393,3.053,0.416c1.555,0.108,2.936-0.23,4.163-0.965c-3.887,27.859-4.677,47.112-2.35,57.704
		c2.361,13.517,8.867,21.577,19.52,24.18c12.926,2.97,22.659-2.955,29.2-17.776c2.926-8.254,5.166-22.284,6.717-42.091
		c0.644-3.917,0.691-10.176,0.154-18.737c0.63,0.268,1.273,0.461,1.934,0.555c2.75-0.02,5.55,0.242,8.396,0.782
		c9.604,1.769,16.445,3.161,20.526,4.179c2.298,0.564,4.071,1.043,5.322,1.437c5.029,1.714,9.334,3.103,12.911,4.167
		c0.969,0.321,1.827,0.632,2.576,0.931c2.655,1.195,4.086,1.795,4.294,1.798c0.982,0.322,1.989,0.485,3.019,0.491
		c0.943-0.012,1.872-0.187,2.788-0.498c-0.365,8.948-1.388,17.588-3.077,25.922c-8.176,28.882-12.171,44.329-11.988,46.339
		c-1.164,7.645-1.408,14.151-0.732,19.521c2.673,15.538,10.34,24.188,23,25.953c12.924-1.712,21.232-11.69,24.927-29.935
		l3.647-18.302l2.91-38.667l4.534-27.471c0.128-0.342,0.2-0.648,0.208-0.915c0.219-0.269,1.238,0.044,3.058,0.938
		c1.04,0.611,1.803,1.169,2.291,1.673c5.002,5.692,8.651,9.24,10.951,10.642l20.589,12.562
		c14.057,10.858,21.321,15.991,21.795,15.403c2.827,1.284,5.722,2.086,8.686,2.408c11.873-0.251,18.261,0.032,19.164,0.848
		c2.895,0.749,5.3,1.657,7.216,2.726c7.015,5.868,11.998,9.14,14.948,9.815c0.454,0.156,0.969,0.299,1.522,0.432
		c-0.225,2.3-0.316,6.159-0.276,11.599c-0.002,4.611,0.203,8.431,0.613,11.461c0.132,1.246,0.625,4.431,1.48,9.555
		c2.283,11.644,3.397,17.665,3.343,18.062c0.624,4.134,0.998,8.702,1.123,13.704c0.026,2.456-0.095,5.197-0.362,8.223
		c-1.365,11.986-2.274,21.033-2.725,27.142c-0.835,12.567-1.462,21.516-1.884,26.846c-0.105,1.587-0.177,3.397-0.216,5.431
		c-0.069,6.221,0.014,12.173,0.247,17.856c1.429,22.874,2.358,41.429,2.791,55.663c0.053,2.579,0.022,5.393-0.093,8.438
		c-0.397,9.615-0.783,17.319-1.157,23.114c-0.047,1.136-0.056,1.938-0.027,2.408c0.118,4.93,2.401,9.457,6.851,13.585
		c3.279-2.965,5.625-6.171,7.035-9.62c0.269-0.694,0.438-1.387,0.51-2.078c0.248-3.225,0.479-6.612,0.689-10.163
		c0.137-2.148,0.229-4.088,0.274-5.815l0.316-13.788c0.055-3.436,0.028-6.782-0.082-10.042c-0.053-1.663-0.145-3.57-0.275-5.721
		l-1.278-20.246c-0.261-4.053-0.773-10.84-1.536-20.361c-0.151-2.058-0.29-4.208-0.416-6.449
		c-0.323-5.557-0.496-12.096-0.518-19.622c0.008-1.09,0.083-2.49,0.228-4.199l2.271-24.81c0.323-2.975,0.647-5.686,0.971-8.135
		c1.831-12.709,2.716-19.261,2.656-19.657c0.37-3.554,0.564-7.521,0.582-11.9c-0.02-3.007-0.334-6.908-0.943-11.703
		c-0.228-2.113-1.111-8.089-2.653-17.929l-1.572-11.671c-0.176-1.706-0.229-5.023-0.162-10.373c-0.004-1.72,0.134-4.235,0.411-7.235
		c0.107,0,0.204,0,0.312,0c1.034,0,2.629,1.41,4.784,3.499c1.059,0.975,3.016,3.483,5.867,7.739c0.773,0.924,1.595,1.65,2.462,2.286
		c3.142,2.231,6.48,3.333,10.017,3.354c17.322-0.86,26.391-11.378,27.205-31.528C783.298,639.754,783.024,628.523,781.562,612.684z
		 M326.704,207.247c-4.811-7.339-11.499-15.776-20.09-25.325c-5.247-5.791-9.8-10.135-13.66-13.033l-3.624-2.48
		c-6.018-3.473-11.378-6.795-16.081-9.968l-7.283-3.859c-1.92-1.259-3.983-3.197-6.189-5.813l-0.068-0.075
		c1.312,1.638,2.306,3.271,2.984,4.899l0.67,2.018c0.611,3.749,1.168,6.262,1.672,7.542c0.659,1.93,1.634,3.766,2.924,5.508
		c3.135,3.785,6.704,7.808,10.706,12.069l10.902,9.523c2.446,2.33,4.933,4.98,7.461,7.951c3.801,4.502,7.197,8.802,10.188,12.9
		c2.977,3.967,6.313,9.267,10.009,15.898c0.418,0.603,0.845,1.139,1.277,1.645c-4.783,5.154-8.693,12.6-11.721,22.358
		c-3.701,11.474-5.333,21.366-4.921,29.695c-0.774-0.935-1.571-1.784-2.389-2.55c-0.293-1.134-0.681-2.167-1.168-3.094
		c-0.616-1.147-1.308-2.153-2.077-3.019c-4.352-4.194-7.664-7.791-9.937-10.791c-4.387-5.629-7.5-10.015-9.34-13.158
		c-0.735-0.712-4.579-8.721-11.53-24.023l-9.588-17.935c-2.004-4.275-3.634-8.63-4.889-13.065
		c-1.726-5.886-3.075-13.993-4.046-24.32c-0.334-0.21-0.411-7.364-0.232-21.462c-0.14-11.431,1.655-22.418,5.383-32.962
		l25.735,15.152l20.182,9.946c4.496,2.71,9.139,5.948,13.929,9.713c2.264,1.703,4.378,3.864,6.341,6.485l18.17,26.055
		c0.185,0.229,0.377,0.435,0.567,0.648c-1.321,1.876-2.558,3.806-3.687,5.808C329.922,192.516,327.733,199.558,326.704,207.247z
		 M713.507,269.842c-1.752-14.477-4.005-24.12-6.759-28.931c-0.066-0.216-0.163-0.457-0.272-0.71
		c0.229-4.507,0.398-10.531,0.512-18.088c0.503-9.269,0.783-13.928,0.839-13.977c0.688-7.732,1.661-13.931,2.925-18.597
		c1.131-4.323,2.755-8.956,4.87-13.896c0.401-1.017,2.323-5.314,5.77-12.894l6.785-13.959l8.061-18.991
		c0.498-1.211,0.698-1.802,0.601-1.773l-0.038-0.021c-12.328,8.253-20.312,15.163-23.956,20.73
		c-7.147,10.068-12.426,21.648-15.836,34.742c-2.138,8.382-3.518,16.671-4.144,24.869c-0.139,1.746-0.266,3.446-0.378,5.103
		c-1.105-3.342-2.472-6.364-4.113-9.05c-5.366-8.636-10.797-15.301-16.288-20c2.757-13.788,5.5-23.433,8.227-28.915
		c2.851-6.541,6.672-12.249,11.465-17.127c2.287-2.306,4.933-4.546,7.938-6.721l25.358-18.421l7.569-4.857
		c3.112-1.812,6.557-3.293,10.334-4.443c10.609-2.736,16.062-4.313,16.354-4.732c0.348-0.093,0.61,0.134,0.785,0.682
		c2.893,8.8,5.207,24.455,6.945,46.966c0.612,11.25-0.271,22.049-2.652,32.396c-2.311,12.736-8.292,31.875-17.946,57.414
		c-1.045,2.681-2.355,5.69-3.926,9.027c-9.063,17.701-16.424,32.949-22.087,45.755c-0.309-1.44-0.628-2.917-0.97-4.477
		C717.935,280.059,715.943,274.358,713.507,269.842z M441.535,566.466l-18.681-3.277c-4.922-0.712-10.762-1.063-17.518-1.055
		c-1.321-0.103-2.611-0.369-3.87-0.8l-14.417-6.711c-0.27-0.195-0.418-0.457-0.445-0.785c0.078-2.262,0.049-3.557-0.085-3.887
		c-0.088-0.48-0.277-0.911-0.516-1.315l8.543,0.446l29.164,3.373l8.949-0.072c1.944,0.102,5.313,2.941,10.107,8.521
		c1.316,1.354,2.338,3.547,3.071,6.559C445.686,567.311,444.26,566.979,441.535,566.466z M445.844,567.492
		c0.006,0.025,0.013,0.05,0.02,0.076c-0.018-0.013-0.035-0.029-0.053-0.041C445.841,567.519,445.84,567.505,445.844,567.492z
		 M560.765,587.829c-0.936-0.084-1.974-0.245-3.11-0.483c-3.704-0.902-6.887-1.603-9.547-2.101
		c-0.842-0.199-1.801-0.454-2.876-0.765c-4.345-1.369-6.815-2.107-7.409-2.218c-1.189-0.334-4.66-1.114-10.412-2.345
		c-1.908-0.414-6.833-1.09-14.777-2.459c-2.913-0.439-5.218-0.459-6.914-0.459h-0.054c-2.245,0-4.304,0.109-6.19,0.703
		c-0.348-3.887-0.78-8.222-1.308-12.82c-0.08-1.759,0.463-3.508,1.63-5.136c0.204-0.341,0.567-0.519,1.09-0.483l14.302,1.877
		c6.673,2.245,10.833,3.403,12.481,3.488l20.021,2.005c2.241,4.077,6.33,8.917,12.27,14.525c0.919,2.105,1.527,4.494,1.847,7.144
		c-0.181-0.134-0.362-0.242-0.544-0.318L560.765,587.829z M593.635,565.526c-0.006,11.468-0.337,20.419-0.994,26.856l-5.695,35.772
		c-1.696,29.278-2.99,44.469-3.883,45.574c-3.461,18.685-7.809,28.969-13.04,30.852c-2.846,0.551-5.703-2.104-8.574-7.959
		c-1.632-3.002-2.306-7.997-2.022-14.991c0.148-4.034,0.917-9.117,2.306-15.249c7.182-24.739,10.809-38.824,10.878-42.256
		c2.295-13.54,3.106-25.288,2.434-35.242c-0.806-6.156-2.376-11.189-4.712-15.104l-14.438-16.677
		c-1.758-1.604-4.443-2.854-8.059-3.749c0.106-0.364-5.92-0.79-18.078-1.276l-9.437-3.229c-1.721-0.497-3.948-0.884-6.683-1.159
		c-10.891-0.791-15.899-1.014-15.028-0.664c-3.25,0.646-6.075,2.31-8.477,4.989c-2.484,2.432-4.098,6.486-4.839,12.164l2.098,33.178
		c-1.102,18.039-2.574,31.101-4.415,39.183c-2.602,12.713-7.51,18.167-14.725,16.363c-6.19-0.727-9.974-6.494-11.354-17.305
		c-0.624-2.878-0.731-9.024-0.325-18.438c3.644-25.39,4.927-39.32,3.85-41.792c-0.619-11.162-3.522-19.485-8.711-24.972
		c-4.645-5.73-10.207-9.391-16.683-10.981l-60.731-3.954c-6.597-1.499-11.521-5.76-14.774-12.78
		c-3.276-7.364,0.468-15.969,11.235-25.812l23.564-11.574c2.048-1.014,7.908-3.058,17.581-6.134c2.87-0.832,5.391-1.546,7.568-2.144
		c-2.542,2.814-4.166,5.924-4.865,9.332c-0.64,2.939-0.114,5.861,1.579,8.764c0.039,0.551,1.171,1.962,3.376,4.22
		c1.408,2.79,3.724,5.396,6.964,7.819c5.896,5.057,13.03,7.568,21.398,7.533c5.364,0.092,9.556-0.775,12.576-2.598
		c1.096-0.633,2.05-1.322,2.892-2.059l9.468-3.434c0.792-0.292,1.571-0.699,2.338-1.225c2.049-1.428,3.827-3.629,5.336-6.598
		c2.384-4.591,3.978-8.719,4.779-12.383c0.458-2.289,0.756-5.29,0.9-8.984c1.428,0.138,2.724,0.237,3.868,0.29
		c3.92,0.198,7.072,0.188,9.456-0.031c0.836-0.073,1.637-0.173,2.402-0.301l7.136-1.329c5.293-0.958,9.382-2.305,12.272-4.04
		l0.819,0.321c0.82,0.297,1.504,0.479,2.053,0.545c0.473,0.053,0.84,0.04,1.1-0.036c1.301-0.743,2.058-1.026,2.268-0.85
		c3.961,1.972,8.447,3.222,13.461,3.751c4.154,0.539,8.179,0.706,12.073,0.503c1.35-0.069,2.829-0.194,4.438-0.375l11.548-1.38
		c-1.561,2.018-2.472,4.251-2.712,6.708c-0.546,4.239,1.635,9.542,6.539,15.909c1.343,1.862,4.033,4.318,8.071,7.369
		c1.079,0.824,2.079,1.54,3.015,2.165c0.505,2.202,2.063,4.063,4.714,5.575c3.777,2.039,8.138,3.128,13.081,3.268
		c9.125,0.09,18.413-4.285,27.864-13.126c8.584-8.477,13.282-17.313,14.093-26.509c-0.071-2.211-0.452-4.156-1.103-5.868
		c1.093-0.089,2.194-0.187,3.323-0.306c2.537,0.089,4.859,0.623,6.967,1.6l23.205,11.988l11.773,15.456l15.902,11.888
		c1.019,1.502,1.533,3.393,1.543,5.668c-1.012,11.533-1.033,19.804-0.063,24.812l2.229,7.836c6.112,12.564,9.351,20.19,9.714,22.88
		c1.485,5.644,1.843,12.543,1.072,20.699c-1.629,12.583-7.287,15.478-16.976,8.685c-4.498-3.563-7.906-7.208-10.223-10.936
		l-11.578-24.669c-3.278-4.382-6.764-7.099-10.456-8.153c-3.086-1.116-6.79-1.258-11.111-0.423
		c-4.412,0.739-9.483,2.657-15.216,5.756l-3.678,0.516c-3.807-0.103-6.036-0.347-6.688-0.733
		c-9.891-5.899-16.801-9.015-20.731-9.347c-5.018-1.382-9.179-0.699-12.484,2.053C595.896,557.888,594.042,561.319,593.635,565.526z
		 M753.972,664.976c-6.377-8.964-11.921-14.151-16.63-15.563c-1.807-0.701-3.888-1.187-6.239-1.456
		c-5.761,0.069-9.682-0.029-11.786-0.292c0.588-1.116,1.07-2.299,1.432-3.559c0.375-1.368,0.52-2.495,0.433-3.381
		c-0.02-0.177-0.054-0.345-0.103-0.503c-0.222-0.502-0.383-0.951-0.483-1.347c-0.484-2.425-0.839-3.872-1.062-4.343
		c-0.16-0.415-0.378-0.889-0.649-1.417l-1.737-3.215c-0.071-0.104-0.35-1.085-0.831-2.331c-0.082-0.17-0.158-0.569-0.228-0.569
		h-0.004c-0.081,0-0.21,0.467-0.387,0.818c-1.689,0.287-3.231,0.953-4.625,1.691c-1.085,0.576-1.896,1.312-2.434,2.053
		c-1.552,2.164-2.192,4.861-1.931,8.006l-2.389-1.644c-2.666-1.492-6.127-2.78-10.383-3.881c-2.237-0.956-8.765-1.131-19.584-0.535
		c-1.908-0.128-3.421-0.478-4.535-1.05l-20.268-14.238l-20.373-12.21c-1.285-0.341-5.105-4.092-11.459-11.254
		c-2.138-1.748-4.414-3.023-6.827-3.824c-1.435-0.435-2.765-0.726-4.008-0.896c0.614-7.616,0.828-15.644,0.589-24.137
		c5.209,2.046,11.159,5.039,17.851,8.98c3.332,1.366,6.412,2.152,9.239,2.359c3.811,0.139,6.903,0.006,9.291-0.395
		c0.162,0.114,0.312,0.223,0.43,0.319c0.775,0.599,1.397,1.238,1.865,1.918c0.518,0.75,1.084,1.765,1.695,3.047
		c0.226,0.383,1.14,2.526,2.742,6.429c0.551,1.22,1.115,2.34,1.691,3.357c0.499,0.881,0.99,1.656,1.476,2.325
		c0.069,0.147,0.977,1.242,2.719,3.285c0.355,0.447,0.631,0.856,0.827,1.226c0.236,0.287,0.401,1.044,0.492,2.269
		c-0.097-0.678,0.063-1.674,0.48-2.988c0.281-0.903,0.82-2.068,1.615-3.494c0.145-0.327,0.265-0.667,0.362-1.021
		c0.201-0.712,0.304-1.526,0.306-2.444c-0.153-3.257-1.104-6.802-2.852-10.632c-1.517-3.085-3.074-5.419-4.671-7.009l5.207-2.069
		c3.306-0.931,5.747-1.215,7.322-0.852c0.982,0.457,2.222,2.144,3.717,5.056c3.629,9.956,6.311,16.409,8.045,19.361
		c1.574,3.012,3.522,5.89,5.845,8.635c6.446,8.041,13.805,12.863,22.074,14.466c10.086,1.021,17.463-1.771,22.148-8.353
		c0.688-0.06,1.394-0.31,2.119-0.773c0.727-0.418,1.526-0.934,2.401-1.544l4.803-3.482c0.805-0.521,1.449-0.826,1.932-0.912
		c0.396-0.127,1.046-0.033,1.946,0.283c0.443,0.112,2.131,0.805,5.062,2.075c0.692,0.201,1.433,0.313,2.22,0.338
		c1.291,0.049,2.795-0.128,4.515-0.533c2.735-0.719,4.147-1.24,4.233-1.567c0.187-0.219-0.068-0.546-0.765-0.98
		c-0.174-2.117-0.584-3.97-1.229-5.561c-0.497-1.205-1.114-2.154-1.852-2.77c-3.193-2.505-7.304-3.248-12.331-4.248h-0.066
		c-2.448,0-4.862,0.572-7.244,1.633c0.681-6.998,0.35-13.925-1.02-20.817l-3.211-10.894c-5.939-12.412-8.75-18.844-8.434-19.305
		c-0.13-0.48-0.242-1.004-0.342-1.559l0.074-0.058c0.671-0.599,1.139-1.128,1.401-1.585c0.148-0.25,0.251-0.48,0.311-0.695
		c0.352-1.514,0.722-2.867,1.107-4.06c0.312-0.966,0.64-1.868,0.985-2.711c0.768-1.892,1.679-3.592,2.732-5.104
		c0.847-1.188,1.863-2.436,3.054-3.741c0.468-0.567,1.89-1.948,4.264-4.146c0.284-0.268,0.822-0.879,1.618-1.833
		c1.393-1.649,2.387-3.15,2.98-4.503c0.863-2.135,1.164-3.179,0.901-3.129c-0.036-0.1-0.351,0.181-0.946,0.403
		c-2.21-1.365-4.173-1.897-5.891-1.897h-0.036c-0.518,0-0.988-0.145-1.414,0.011c-1.637,0.638-2.897,1.078-3.781,1.542
		c-1.461,0.746-2.673,1.588-3.636,2.635c-1.32,1.353-2.534,2.715-3.666,4.133c-0.063-0.877-0.152-1.601-0.268-2.129
		c-0.858-4.959-2.658-8.987-5.398-12.072l-9.313-7.37l0.245-1.149c0.345-1.394,0.722-2.555,1.13-3.48
		c0.498-1.154,1.143-2.453,1.935-3.895c0.403-0.778,1.515-2.646,3.333-5.601l2.973-5.471l3.811-6.114
		c0.877-1.681,1.171-2.533,0.882-2.559l-0.033-0.002c-0.099-0.01-0.319,0.089-0.665,0.299c-1.944-0.305-3.716-0.192-5.313,0.335
		c-2.058,0.812-4.158,2.002-6.301,3.571c-3.83,2.704-7.14,6.777-9.928,12.219c-0.441,0.813-0.816,1.634-1.16,2.46
		c-1.127-1.68-2.188-3.21-3.185-4.583c0.571-0.405,0.972-0.792,1.188-1.161c1.153-2.168,1.965-3.787,2.435-4.855l2.897-7.054
		l1.489-3.49c0.703-1.685,2.337-4.95,4.901-10.134c0.395-0.845,0.531-1.085,0.408-1.085h-0.004c-0.067,0-0.312,0.021-0.732,0.453
		c-1.449,0.562-2.851,1.244-4.205,2.219c-0.648,0.406-1.916,1.507-3.802,3.391c-1.252,1.315-2.404,2.543-3.469,3.736l15.444-21.787
		c2.752-3.321,6.432-6.026,11.039-8.106c5.496-2.236,9.105-2.96,10.828-2.163c5.869,4.298,9.711,8.215,11.525,11.758
		c2.491,7.979,7.149,18.246,13.938,30.76c-0.794-0.311-1.655-0.519-2.604-0.849c-3.246-1.047-6.086-1.411-8.521-1.411h-0.028
		c-3.139,0-5.56,0.612-7.26,2.222c-0.684,0.7-1.102,1.419-1.254,2.265c-0.056,0.304-0.079,0.581-0.07,0.888l0.189,2.965
		c0.392-0.003,0.788,0.071,1.188,0.237c-0.021-0.051,0.765,0.347,2.354,1.202c0.417,0.194,0.798,0.33,1.144,0.414
		c0.286,0.068,0.543,0.109,0.771,0.122c1.843,0.038,3.052,0.106,3.624,0.206c0.669,0.081,1.63,0.32,2.882,0.718
		c1.036,0.323,1.986,0.677,2.851,1.06c0.095,0.003,1.261,0.604,3.493,1.803c0.562,0.277,1.089,0.503,1.582,0.679l1.288,0.366
		c-0.039,0.221-0.064,0.418-0.107,0.646l-4.127,18.839c-0.569,3.95-0.78,7.57-0.632,10.859c0.119,3.662,0.712,7.531,1.774,11.605
		c0.168,0.943,0.732,2.646,1.687,5.245c-0.656-0.168-1.281-0.341-1.869-0.341h-0.007c-1.315,0-2.522,0.507-3.619,1.376
		c-0.404,0.32-0.802,0.749-1.191,1.208c-1.186,1.449-2.058,2.574-2.617,3.334c-0.007,0.051-0.03,0.047-0.071-0.033l-0.171,0.336
		l0.225-0.248c2.239,3.688,3.641,5.619,4.205,5.793c2.091,1.063,3.558,1.865,4.398,2.406c0.8,0.491,2.394,1.604,4.781,3.337
		c0.2,0.135,0.406,0.258,0.618,0.371l1.262,0.589c0.062,0.515,0.121,1.043,0.173,1.598c0.48,2.132-0.066,11.097-1.639,26.895
		c-0.12,2.42-0.095,4.834,0.075,7.243c0.212,2.577,0.535,4.772,0.973,6.586c3.388,11.379,5.118,18.034,5.19,19.965
		c0.173,1.017,0.338,2.554,0.494,4.112c-0.308-0.071-0.616,0.133-0.924,0.133h-0.029c-0.882,0-1.842,0.026-2.88,0.564
		c-0.231,0.12-0.462,0.133-0.693,0.276c-1.02,0.843-2.201,1.622-3.542,2.454l0.444,0.007c-0.007,0.705-0.04,1.354-0.099,1.978
		c-0.062,0.663-0.147,1.271-0.257,1.837c-0.088,0.539-0.334,1.508-0.734,2.914c-0.065,0.296-0.079,0.516-0.041,0.666
		c0.015,0.096,0.065,0.198,0.15,0.31c0.64,0.545,1.237,1.239,1.789,2.083c0.22,0.33,0.445,0.705,0.678,1.123
		c0.849,1.702,1.468,2.857,1.859,3.464c0.625,1.017,1.295,1.966,2.009,2.846c0.768,0.94,1.491,1.723,2.172,2.344
		c0.149,0.151,0.506,0.459,1.058,0.915c-0.351,10.278-1.504,17.022-3.47,20.202C763.711,663.015,759.791,664.68,753.972,664.976z"/>
	<path d="M737.258,477.334c-0.13-0.054-0.14,0.022-0.03,0.23c0.077,0.214,0.09,0.145,0.038-0.211L737.258,477.334z"/>
	<path d="M358.744,345.041l2.3-0.65c-1.561,5.446-1.831,10.753-0.79,15.922c3.072,11.958,15.426,18.281,37.061,18.972
		c4.953,0.102,10.388-1.158,16.307-3.778c8.051-3.976,12.75-7.295,14.097-9.96c2.472-3.58,3.685-7.562,3.641-11.947
		c0.247-2.761-0.222-7.24-1.386-13.387c2.373-0.003,2.923-0.363,1.635-1.083l-0.022-0.009l-1.62,1.058
		c-0.122-0.644-0.245-1.291-0.382-1.971l1.994,0.907l4.592-2.809c-0.399-2.892-2.14-6.243-5.226-10.056
		c-3.005-3.781-6.195-6.574-9.573-8.609c-5.312-3.288-14.218-5.642-26.717-5.642h-0.032c-5.846,0-11.308,1.36-16.388,3.944
		c-2.342,1.221-4.519,2.499-6.531,3.948l-8.901,7.196c-1.409,1.097-2.811,2.087-4.206,3c-3.782,2.442-7.157,4.201-10.127,5.288
		c-3.358,1.198-6.507,1.758-9.447,1.686c-1.201-0.021-2.408-0.174-3.622-0.456c-0.991-0.201-2.478-0.701-4.459-1.498
		c-0.283-0.103-0.478-0.124-0.586-0.058c0.008,0.145,0.308,0.436,0.898,0.871l7.119,5.188c0.995,0.706,2.105,1.341,3.333,1.905
		c3.837,1.545,7.884,2.432,12.143,2.659C355.442,345.671,357.073,345.459,358.744,345.041z M418.217,333.038l5.433,2.471
		l-0.107,0.457c-0.247,0.763-0.54,1.423-0.88,1.984c-0.734,1.262-1.849,2.389-3.343,3.381c-4.974,2.915-9.461,3.909-13.462,2.98
		c-3.602-0.896-5.241-3.763-4.917-8.601c0.276-2.741,1.08-4.962,2.39-6.686c0.673,0.14,1.38,0.291,2.119,0.455l1.975,0.614
		c0.009-0.057,0.014-0.107,0.022-0.164c1.971,0.455,4.135,0.978,6.513,1.578C415.438,331.94,416.858,332.45,418.217,333.038z"/>
	<path d="M681.812,348.531c4.178,0.122,7.806-0.66,10.881-2.342c1.173-0.651,2.266-1.41,3.276-2.276l8.443-7.705l-3.49,1.652
		c-0.987,0.359-2.054,0.599-3.199,0.721c-2.895,0.224-5.611-0.06-8.15-0.849c-1.982-0.654-3.832-1.551-5.55-2.689
		c-1.148-0.773-2.265-1.604-3.352-2.493c-4.108-3.725-6.927-6.116-8.452-7.171c-1.867-1.367-4.516-3.251-7.948-4.785
		C656.5,317.071,648.538,315,640.384,315h-0.172c-4.001,0-7.572,0.769-10.716,1.452c-2.302,0.561-4.354,1.82-6.156,3.34
		c-2.264,1.811-4.76,5.039-7.484,9.467c-2.827,4.374-4.805,8.375-5.933,11.896l3.411-1.233l-1.996,8.049
		c-0.385,2.392-0.205,4.578,0.537,6.543c1.938,4.532,5.55,8.422,10.836,11.666c4.101,2.716,7.876,4.847,11.327,6.391
		c2.666,1.098,5.207,1.635,7.625,1.609c1.429-0.006,2.905-0.169,4.427-0.496c6.274-1.417,11.01-2.575,14.209-3.471
		c2.249-0.729,4.218-1.994,5.905-3.797c2.28-2.229,4.206-6.233,5.778-12.012c0.633-2.591,0.868-5.032,0.728-7.33
		c0.095,0.036,0.207,0.084,0.294,0.114C675.098,348.083,678.033,348.531,681.812,348.531z M665.476,345.379
		c-0.457,1.653-1.168,3.031-2.133,4.132c-2.576,2.707-5.651,3.664-9.227,2.871c-1.415-0.465-2.551-1.444-3.407-2.937
		c-1.01-1.798-1.421-3.479-1.232-5.042c0.317-2.079,1.521-4.108,3.573-6.088c2.182,0.519,3.442,0.838,3.754,0.954
		c1.505,0.446,2.976,1.018,4.415,1.716c1.74,1.014,3.287,1.895,4.681,2.669C665.781,344.245,665.644,344.821,665.476,345.379z"/>
	<path d="M477.883,380.824c2.441,0.429,4.849,0.382,7.226-0.138c1.996-0.448,5.235-1.595,9.716-3.444
		c0.849-0.271,1.631-0.444,2.344-0.518c2.442-0.24,4.568,0.126,6.379,1.1c1.375,0.666,2.928,2.291,4.66,4.876
		c0.574,0.652,2.751,4.981,6.526,12.987c1.234,2.272,2.381,3.88,3.44,4.825c3.208,2.833,7.733,4.272,13.576,4.317
		c4.598,0.039,8.331-1.094,11.2-3.399c2.526-1.969,4.304-3.687,5.332-5.156c1.254-1.712,2.819-4.405,4.696-8.083l1.709-2.351
		c1.431-1.674,3.168-3.092,5.212-4.256c1.627-0.918,3.127-1.426,4.499-1.524l6.656,0.281c1.859,0.009,3.079-0.066,3.661-0.225
		c1.795-0.354,3.487-1.103,5.078-2.248c3.779-2.897,5.436-6.412,4.969-10.544c-0.877-7.658-7.244-14.651-19.101-21.103
		C554.864,340.092,541.251,337,524.819,336h-0.129c-5.652,0-12.838,0.701-21.557,2.592c-4.691,1.006-8.985,2.669-12.883,5.056
		c-10.829,7.73-16.751,12.409-17.768,14.067c-3.607,4.316-5.26,8.604-4.959,12.878C468.469,375.884,471.921,379.289,477.883,380.824
		z"/>
	<path d="M644.613,541.735c8.634,4.271,17.379,6.491,26.239,6.661c2.693-0.011,5.103-0.457,7.229-1.336
		c1.855-0.75,3.432-1.783,4.728-3.1c2.118-0.428,3.869-1.266,5.252-2.513c3.141-2.714,4.352-6.474,3.634-11.278
		c-0.43-2.872-1.521-5.912-3.276-9.124c-3.448-5.965-6.437-10.288-8.965-12.971c-2.753-3.071-5.479-5.439-8.181-7.104
		c-2.231-1.312-4.711-1.972-7.439-1.972h-0.086c-2.955,0-7.453,1.01-13.491,3.188c-4.101,1.649-7.507,3.655-10.217,6.013
		c-5.327,5.351-7.674,11.669-7.042,18.955C633.979,533.328,637.851,538.188,644.613,541.735z"/>
	<path d="M609.207,540.886l-4.73,3.435c3.151-2.537,4.721-3.908,4.71-4.114c0.9-1.06,1.436-2.203,1.603-3.43
		c0.367-3.324-1.582-6.157-5.848-8.501c-0.881-0.486-1.792-0.896-2.73-1.232c-2.071-0.636-5.194-1.674-9.366-3.103
		c-2.245-0.619-4.568-0.94-6.969-0.94h-0.077c-2.117,0-5.233,0.349-9.352,1.169c-3.42,0.704-6.355,1.569-8.806,2.589
		c-2.742,1.471-4.523,4.107-5.343,7.907c-0.365,3.64,1.836,7.372,6.602,11.198c2.883,2.376,7.399,3.55,13.549,3.516
		c8.967-0.25,15.381-1.266,19.243-3.047C604.274,545.172,606.778,543.356,609.207,540.886z"/>
	<path d="M554.805,508.422c-1.146-1.206-2.773-2.69-4.881-4.451c-0.487-0.47-0.963-1.022-1.422-1.657l4.685,4.052
		c-0.333-2.781-1.725-4.795-4.177-6.766c-9.33-6.691-17.645-9.599-24.944-9.599h-0.034c-8.321,0-15.43,2.788-21.325,7.796
		c-3.052,2.648-5.831,5.923-8.336,10.186c-2.349,4.028-3.485,7.197-3.413,9.688c0.182,4.516,3.284,8.451,9.306,11.895
		c1.938,1.264,6.493,2.771,13.667,4.564c5.509,1.347,9.239,1.936,11.189,1.789c2.732-0.017,5.689-0.465,8.868-1.334l10.604-3.33
		c2.253-0.811,4.181-1.643,5.785-2.494c6.139-3.627,9.128-7.436,8.968-11.423c-0.069-2.317-0.794-4.362-2.177-6.136
		C556.526,510.307,555.738,509.379,554.805,508.422z"/>
</g>
</svg>
