<?xml version="1.0" standalone="no"?>
<!DOCTYPE svg PUBLIC "-//W3C//DTD SVG 20010904//EN"
 "http://www.w3.org/TR/2001/REC-SVG-20010904/DTD/svg10.dtd">
<svg version="1.0" xmlns="http://www.w3.org/2000/svg"
 width="1721.000000pt" height="1721.000000pt" viewBox="0 0 1721.000000 1721.000000"
 preserveAspectRatio="xMidYMid meet">
<metadata>
Created by potrace 1.11, written by Peter Selinger 2001-2013
</metadata>
<g transform="translate(0.000000,1721.000000) scale(0.100000,-0.100000)"
fill="#000000" stroke="none">
<path d="M13705 17194 c-33 -7 -77 -16 -98 -19 -173 -28 -420 -123 -562 -218
-264 -176 -773 -556 -844 -629 -161 -168 -283 -386 -381 -685 -23 -71 -24 -72
-39 -50 -59 86 -291 237 -449 292 -69 24 -82 27 -173 39 -25 4 -57 9 -70 11
-13 2 -53 9 -89 15 -36 6 -78 13 -95 16 -50 9 -142 58 -300 160 -183 118 -196
124 -320 165 -95 32 -107 33 -250 33 -135 1 -320 -9 -371 -18 -10 -2 -54 -7
-97 -11 -43 -3 -88 -8 -100 -10 -12 -2 -49 -6 -82 -10 -218 -22 -375 -72 -502
-158 -24 -16 -45 -28 -47 -26 -1 2 -11 24 -21 48 -52 118 -177 194 -389 237
-80 16 -361 22 -475 10 -41 -4 -95 -9 -120 -12 -25 -2 -80 -9 -121 -15 -41 -5
-93 -12 -115 -15 -97 -11 -112 -13 -150 -19 -22 -3 -51 -8 -65 -10 -14 -3 -52
-8 -85 -11 -33 -3 -63 -8 -66 -10 -3 -1 -29 -6 -59 -9 -69 -8 -189 -52 -303
-113 -76 -39 -98 -47 -121 -41 -110 30 -344 27 -451 -5 -25 -8 -45 -12 -45
-10 0 8 -198 -66 -245 -92 -63 -34 -189 -162 -235 -237 -35 -57 -35 -57 -75
-50 -55 9 -68 7 -112 -13 -54 -25 -170 -100 -223 -144 l-45 -38 -63 102 c-337
542 -517 700 -1097 960 -76 35 -231 114 -378 194 -212 116 -241 129 -352 158
-55 14 -106 29 -114 34 -9 4 -28 2 -45 -5 -17 -7 -58 -24 -90 -38 -77 -33
-141 -87 -170 -145 -43 -86 -92 -244 -110 -362 -3 -19 -8 -46 -11 -60 -28
-128 -28 -876 -1 -1040 2 -14 7 -47 11 -75 13 -100 15 -111 41 -240 36 -181
97 -341 235 -615 59 -118 142 -295 183 -393 90 -210 131 -293 193 -390 126
-197 340 -443 451 -519 46 -31 132 -115 132 -129 0 -3 -14 -23 -30 -44 -75
-95 -142 -261 -155 -385 -4 -36 -9 -74 -12 -85 -2 -11 -5 -90 -7 -175 -3 -156
4 -266 24 -374 l11 -58 -65 -62 c-115 -107 -172 -233 -183 -401 -7 -118 11
-181 117 -394 92 -185 106 -233 115 -391 7 -136 11 -159 32 -225 20 -61 49
-114 86 -155 l29 -32 -17 -86 c-9 -48 -19 -100 -22 -117 -4 -16 -7 -37 -8 -45
-6 -49 -17 -126 -20 -142 -20 -101 -24 -392 -9 -593 5 -60 7 -209 4 -330 -5
-307 -4 -673 3 -850 34 -836 29 -1113 -27 -1557 -2 -18 -7 -69 -11 -113 -4
-44 -9 -96 -11 -115 -2 -19 -6 -125 -9 -235 -6 -231 -13 -426 -20 -540 -13
-214 -15 -259 -22 -385 -3 -74 -6 -225 -6 -335 0 -202 5 -387 29 -1030 15
-397 10 -997 -13 -1555 -13 -316 -7 -845 12 -1185 9 -171 16 -272 20 -320 3
-27 7 -84 10 -125 13 -203 38 -281 118 -363 36 -37 52 -48 55 -37 3 8 22 40
42 70 65 96 73 133 65 309 -4 85 -8 161 -10 170 -11 61 -38 859 -39 1146 0 83
4 247 8 365 17 533 20 662 20 1090 0 250 -4 586 -8 745 -16 549 -13 1055 9
1285 8 91 22 409 30 675 3 99 7 205 10 235 3 30 8 82 11 115 2 33 7 71 9 85 2
14 7 54 10 90 4 36 8 76 10 90 2 14 7 54 10 90 4 36 10 94 14 130 15 123 17
410 6 745 -10 322 -11 1050 -1 1175 10 116 11 305 5 675 -4 175 1 271 15 365
3 14 7 50 10 80 3 30 9 82 12 115 4 33 8 110 9 170 1 61 5 120 8 132 4 15 -9
57 -38 123 -29 66 -46 121 -49 158 -14 166 -19 204 -38 284 -14 64 -40 127
-95 235 -42 81 -89 173 -104 203 -53 104 -44 163 41 260 79 90 106 137 131
227 22 79 22 169 1 313 -13 93 -6 402 12 474 31 130 65 178 232 324 81 71 112
124 119 208 3 32 7 82 10 109 2 28 7 82 10 120 15 170 83 404 169 580 61 125
107 181 205 254 115 85 136 143 142 388 8 324 145 555 499 838 69 54 132 106
140 115 8 8 33 17 55 18 53 5 74 19 199 137 59 55 117 105 129 111 23 12 141
43 192 51 17 2 47 8 67 13 40 8 85 7 213 -5 44 -5 96 -8 116 -7 56 1 157 31
201 58 77 49 193 96 258 105 36 5 137 20 225 34 88 13 185 26 215 30 30 3 66
8 80 10 14 2 50 7 80 10 30 4 66 8 80 10 37 5 210 17 250 17 45 0 204 -12 233
-17 125 -24 122 -23 163 -82 22 -31 65 -83 98 -115 106 -105 228 -117 374 -34
149 84 216 105 382 121 36 3 85 8 110 10 25 2 74 7 110 10 36 3 81 8 100 10
51 7 265 18 340 18 111 -1 199 -37 389 -161 185 -121 263 -161 366 -187 80
-20 71 -18 270 -55 165 -30 211 -47 318 -116 118 -76 143 -105 177 -211 62
-191 91 -234 245 -361 52 -43 114 -107 147 -151 31 -42 72 -96 91 -121 42 -55
93 -161 102 -215 28 -159 71 -284 118 -341 9 -10 51 -61 95 -112 109 -129 135
-202 202 -562 12 -63 41 -171 64 -240 43 -123 54 -166 75 -285 6 -33 25 -134
42 -225 37 -190 40 -305 14 -471 -2 -13 -6 -45 -9 -70 -7 -50 -11 -74 -22
-134 -12 -66 -11 -247 2 -295 18 -67 66 -174 121 -274 31 -54 44 -92 57 -171
5 -30 20 -527 17 -575 -1 -13 -14 -72 -30 -130 -16 -58 -35 -129 -42 -158 -12
-49 -17 -55 -61 -77 -66 -33 -183 -122 -245 -186 -75 -78 -390 -494 -423 -559
-23 -45 -44 -106 -66 -187 -2 -7 -68 21 -176 75 -225 114 -255 121 -533 128
-121 2 -233 6 -250 8 -124 16 -311 60 -409 96 -60 23 -87 28 -142 29 l-40 1 2
43 c4 59 -20 125 -64 175 -34 39 -62 54 -62 34 0 -5 -27 -20 -61 -33 -86 -34
-124 -71 -158 -156 -29 -70 -90 -170 -139 -224 -34 -39 -103 -65 -207 -79
-150 -19 -168 -22 -210 -29 -92 -16 -363 11 -441 44 l-32 13 3 99 c1 54 6 132
11 173 16 141 10 351 -14 450 -13 53 -23 73 -59 107 -97 95 -165 59 -169 -87
-2 -41 -6 -118 -9 -170 -4 -52 -8 -153 -11 -225 -6 -203 -24 -269 -93 -334
-82 -78 -113 -92 -264 -127 -127 -29 -155 -32 -267 -29 -69 2 -136 6 -150 9
-14 3 -42 8 -62 11 -97 13 -117 17 -168 31 -117 33 -152 63 -248 206 -83 125
-112 172 -163 273 -59 114 -79 140 -94 123 -49 -54 -84 -419 -46 -486 16 -29
12 -33 -36 -37 -21 -1 -63 -6 -93 -9 -173 -21 -208 -26 -302 -41 -46 -8 -326
-89 -428 -124 -135 -46 -240 -88 -310 -124 -36 -18 -99 -50 -140 -71 -41 -21
-82 -42 -90 -47 -8 -4 -40 -21 -70 -37 -268 -138 -327 -179 -408 -278 -188
-232 -243 -426 -188 -669 43 -193 216 -381 422 -460 l71 -28 -4 -61 c-11 -132
53 -263 172 -354 43 -32 206 -114 300 -150 88 -34 163 -48 300 -57 160 -10
247 -23 375 -55 41 -10 86 -21 100 -23 14 -3 43 -10 65 -15 78 -21 101 -25
175 -27 41 -1 76 -6 78 -11 2 -5 1 -27 -2 -49 -4 -22 -8 -62 -11 -90 -3 -27
-7 -61 -10 -75 -4 -25 -13 -108 -20 -196 -3 -27 -8 -80 -12 -119 -4 -38 -7
-180 -7 -315 1 -213 3 -258 22 -343 61 -278 177 -425 386 -488 82 -25 252 -22
311 6 101 49 169 107 234 203 104 154 137 275 196 717 2 17 6 62 10 100 3 39
8 81 10 95 12 69 19 221 18 357 -1 111 2 151 10 148 7 -2 47 -6 89 -9 43 -4
99 -10 125 -16 26 -5 59 -12 73 -14 14 -3 34 -7 45 -9 11 -2 38 -8 60 -12 41
-7 65 -12 101 -19 135 -27 442 -121 652 -200 26 -10 60 -15 84 -12 l40 5 -7
-102 c-4 -56 -8 -113 -10 -127 -2 -14 -6 -47 -9 -75 -15 -120 -39 -232 -86
-400 -28 -99 -53 -187 -55 -196 -2 -8 -19 -73 -39 -145 -93 -342 -125 -508
-130 -692 -5 -160 30 -320 96 -445 89 -168 298 -290 442 -258 152 34 279 137
360 291 60 113 102 260 149 520 3 14 8 36 11 50 4 14 9 39 11 55 2 17 4 30 5
30 4 0 10 47 15 120 3 44 8 103 10 130 7 80 15 175 20 250 5 69 10 136 21 278
4 60 20 165 70 470 7 48 13 81 24 136 5 29 10 55 10 57 0 10 34 2 58 -13 15
-10 79 -70 142 -133 109 -109 126 -122 330 -244 118 -71 294 -188 390 -259 96
-72 190 -141 208 -154 38 -28 121 -66 183 -84 27 -8 117 -13 234 -15 242 -2
336 -25 443 -108 167 -128 235 -169 294 -175 4 -1 7 -79 6 -173 -1 -150 6
-289 17 -349 2 -9 7 -39 11 -66 3 -26 8 -57 10 -68 2 -11 6 -33 9 -50 3 -16
10 -50 15 -75 5 -25 11 -58 14 -75 2 -16 9 -55 16 -85 6 -30 13 -71 16 -90 3
-19 7 -46 10 -60 6 -38 18 -209 18 -265 0 -64 -13 -245 -18 -253 -2 -4 -7 -47
-11 -95 -3 -48 -8 -96 -10 -105 -3 -19 -18 -195 -29 -342 -3 -36 -8 -105 -12
-155 -3 -49 -8 -108 -9 -130 -1 -22 -6 -89 -10 -150 -14 -182 -10 -455 10
-760 2 -33 6 -118 10 -190 3 -71 8 -150 10 -175 20 -230 25 -773 10 -1025 -15
-258 -12 -322 18 -389 15 -32 46 -81 69 -108 l42 -51 51 55 c57 62 101 137
108 188 6 40 17 199 22 316 5 117 5 603 0 649 -2 22 -6 90 -10 150 -3 61 -8
137 -10 170 -5 63 -11 143 -20 285 -4 47 -8 96 -10 110 -2 14 -7 79 -10 145
-4 66 -9 136 -11 155 -5 53 -6 479 -1 487 3 5 8 49 12 98 3 50 8 104 9 120 2
17 7 68 11 115 4 47 8 96 10 110 1 14 6 54 10 90 3 36 8 76 10 90 27 185 36
245 41 291 3 30 7 56 9 59 2 3 7 46 11 95 13 156 8 378 -11 505 -2 14 -7 45
-10 70 -3 25 -8 57 -11 72 -11 67 -55 374 -61 426 -4 31 -6 113 -6 182 1 202
2 210 17 210 25 0 115 -90 174 -174 111 -156 222 -197 432 -160 89 15 216 85
277 154 64 70 124 198 138 291 4 24 8 46 10 49 18 30 27 525 11 685 -4 44 -9
103 -11 130 -7 98 -33 228 -70 355 -2 8 -18 62 -36 120 -27 92 -31 120 -31
225 -1 66 2 136 5 155 3 19 9 67 12 105 4 39 10 99 15 135 8 71 6 271 -5 335
-12 76 -45 184 -99 328 -29 79 -57 157 -60 173 -3 16 -9 40 -12 54 -3 14 -7
70 -9 125 -3 93 0 114 46 295 67 267 74 311 72 441 -3 110 -23 175 -112 360
-106 221 -221 492 -221 522 0 15 -32 78 -67 134 -46 73 -146 177 -218 227 -58
41 -163 96 -184 96 -5 0 -21 4 -35 9 -24 10 -24 10 -10 58 21 68 28 124 27
228 0 116 -12 410 -18 461 -2 21 -7 62 -9 89 -16 155 -60 278 -165 460 l-52
90 6 100 c3 55 8 116 10 135 2 19 7 77 10 128 4 52 9 104 11 115 3 12 5 79 6
149 l1 127 29 12 c26 11 90 69 128 115 19 23 100 152 100 158 0 3 13 33 29 68
16 35 40 90 54 123 14 33 41 94 60 135 19 41 48 107 65 145 29 66 49 110 167
360 26 55 58 127 71 160 14 33 29 69 34 80 22 49 166 483 224 675 37 126 105
379 113 419 2 14 10 51 18 81 8 30 16 69 19 85 3 17 10 55 16 85 6 30 12 69
15 85 3 17 7 39 9 50 3 11 7 47 11 80 3 33 8 74 11 91 5 36 6 417 0 484 -12
139 -25 265 -31 300 -2 8 -6 40 -9 71 -4 31 -8 65 -10 75 -4 22 -17 110 -21
139 -2 11 -8 49 -15 85 -7 36 -14 76 -16 90 -39 220 -142 351 -311 395 -65 17
-100 17 -188 -1z m189 -345 c14 -51 28 -110 31 -129 3 -19 10 -60 15 -90 15
-88 19 -112 25 -165 4 -27 8 -61 10 -75 2 -14 6 -54 10 -90 4 -36 8 -79 10
-97 21 -186 28 -523 12 -653 -13 -110 -43 -279 -67 -370 -5 -19 -11 -48 -14
-65 -26 -152 -294 -943 -386 -1139 -20 -45 -107 -223 -193 -396 -86 -173 -187
-384 -226 -469 -66 -146 -71 -153 -81 -127 -5 15 -10 34 -10 42 0 32 -53 203
-90 289 -21 50 -41 115 -45 145 -8 75 -21 153 -44 269 -16 77 -50 189 -72 236
-18 36 -19 57 -14 250 3 115 7 253 10 305 7 133 13 197 30 333 10 75 37 200
57 262 11 33 21 68 23 79 8 35 138 332 227 516 49 102 107 228 129 280 22 52
49 114 60 137 29 64 89 211 89 218 0 6 -189 -121 -200 -134 -3 -3 -38 -32 -78
-64 -90 -72 -178 -163 -233 -242 -225 -322 -373 -766 -405 -1215 -4 -52 -8
-97 -10 -99 -2 -2 -8 7 -13 20 -53 141 -203 360 -339 494 l-71 70 19 85 c41
194 60 263 107 400 34 98 122 270 178 345 99 133 180 201 659 547 141 102 309
211 376 242 41 20 156 58 255 85 99 27 191 54 205 59 14 5 26 9 27 8 1 -1 14
-45 27 -97z m-10411 -293 c71 -42 130 -76 132 -76 2 0 39 -22 82 -48 43 -27
188 -104 323 -172 135 -67 271 -140 302 -161 32 -22 60 -39 63 -39 3 0 13 -6
22 -14 10 -8 57 -45 104 -83 107 -85 119 -98 309 -372 85 -122 173 -248 195
-279 l41 -56 -34 -51 c-58 -85 -139 -279 -156 -375 -24 -134 -22 -131 -63 -69
-20 30 -40 59 -45 64 -303 392 -516 613 -695 723 -51 31 -152 94 -225 140 -72
46 -163 99 -201 119 -38 20 -96 61 -129 92 l-60 55 31 -46 c22 -33 38 -75 52
-143 30 -142 59 -199 159 -309 16 -17 37 -41 47 -53 58 -67 112 -119 219 -212
65 -58 145 -132 177 -165 77 -81 282 -334 344 -427 60 -88 153 -239 153 -246
0 -3 9 -17 20 -33 l20 -28 -38 -48 c-80 -102 -134 -210 -194 -384 -25 -76 -63
-210 -74 -265 -2 -11 -8 -42 -14 -70 -15 -79 -23 -144 -25 -225 -2 -41 -3 -76
-4 -78 -3 -11 -34 33 -56 79 -15 34 -61 92 -120 154 -53 55 -131 147 -175 205
-43 58 -83 110 -87 115 -52 64 -129 209 -223 415 -68 150 -119 252 -217 435
-44 83 -90 173 -101 200 -32 79 -72 190 -76 211 -2 10 -9 37 -15 60 -19 69
-47 244 -56 343 -3 24 -7 62 -11 85 -14 84 -5 719 10 745 2 3 7 31 10 62 4 31
11 71 16 88 5 17 9 32 8 34 -1 7 40 155 57 205 4 11 12 9 37 -6 18 -11 91 -54
161 -96z m9842 -6516 c106 -82 169 -160 205 -257 49 -134 135 -324 206 -462
47 -89 60 -122 47 -117 -95 38 -236 50 -306 27 -55 -19 -88 -64 -85 -116 3
-42 5 -44 56 -66 30 -12 76 -23 102 -24 62 -4 105 -18 206 -66 l81 -39 -43
-193 c-66 -294 -72 -389 -38 -604 3 -20 14 -65 25 -98 24 -77 25 -75 -13 -75
-45 -1 -74 -19 -118 -75 l-38 -49 39 -58 c22 -32 54 -65 72 -74 75 -37 206
-130 211 -150 9 -34 -6 -335 -24 -474 -5 -36 -7 -123 -5 -195 2 -124 12 -177
55 -315 25 -81 69 -269 75 -322 l7 -57 -30 1 c-19 1 -51 -12 -81 -32 -42 -26
-51 -37 -51 -61 0 -15 -5 -50 -11 -77 -10 -47 -8 -52 19 -93 16 -24 44 -70 63
-102 19 -32 51 -75 73 -97 l38 -39 -6 -97 c-13 -188 -46 -305 -98 -354 -27
-25 -108 -56 -168 -64 l-45 -5 -35 51 c-49 72 -186 209 -240 240 -95 55 -138
62 -384 67 -51 1 -57 3 -51 19 30 68 33 108 15 179 -22 91 -90 235 -104 224
-6 -4 -33 -16 -59 -25 -27 -10 -57 -28 -69 -40 -31 -32 -58 -96 -58 -138 0
-43 -2 -45 -38 -20 -41 28 -88 47 -187 78 -85 25 -101 27 -305 28 l-215 1
-200 140 c-110 76 -202 142 -205 145 -3 3 -116 73 -253 155 -258 154 -253 151
-433 341 -44 47 -143 100 -203 110 l-40 6 5 40 c4 22 7 134 8 249 1 204 1 209
21 203 25 -8 194 -92 300 -150 122 -66 254 -91 387 -74 43 6 52 4 75 -19 14
-14 41 -60 60 -101 83 -180 105 -221 148 -272 25 -30 45 -60 45 -66 0 -19 16
-22 17 -3 1 9 13 42 27 73 31 68 33 119 6 211 -23 82 -50 141 -96 207 l-33 48
64 26 c78 31 163 43 193 27 25 -13 65 -79 87 -141 8 -25 19 -54 24 -65 5 -11
19 -47 31 -80 154 -416 443 -689 741 -700 148 -6 276 40 363 130 22 23 57 50
76 60 19 10 68 42 109 71 40 30 82 54 93 54 11 0 50 -12 86 -27 43 -17 85 -26
118 -26 67 1 164 29 164 48 0 8 -4 15 -9 15 -4 0 -8 8 -7 18 2 38 -26 113 -54
145 -31 36 -73 55 -180 83 -75 19 -129 19 -191 1 l-44 -14 1 133 c1 73 -3 157
-7 186 -5 29 -11 68 -14 87 -11 69 -75 263 -116 348 -71 150 -91 196 -115 262
-22 62 -22 66 -5 90 9 14 27 60 40 101 13 41 33 93 44 115 25 50 105 151 154
196 58 52 110 120 134 173 11 26 19 49 17 50 -10 6 -80 27 -121 36 -43 9 -53
8 -111 -19 -42 -19 -82 -48 -120 -87 -43 -45 -56 -54 -57 -38 -2 52 -32 144
-67 204 -31 54 -24 48 -144 144 -54 43 -98 79 -98 81 0 1 8 26 19 56 23 68 40
100 212 390 38 63 69 120 69 126 0 14 -103 8 -144 -8 -112 -45 -229 -156 -301
-285 l-48 -85 -29 46 c-27 44 -28 48 -13 65 9 10 36 64 61 121 25 57 52 118
60 136 8 17 14 33 14 36 0 3 27 61 60 130 33 68 60 127 60 131 0 17 -110 -52
-163 -103 -56 -53 -52 -45 82 144 78 110 160 220 184 244 74 76 163 129 280
166 96 31 125 27 192 -25z m-1765 -821 c35 -7 133 -52 270 -123 118 -61 233
-120 255 -131 30 -15 68 -58 160 -179 l120 -159 172 -130 c204 -153 199 -143
187 -326 -12 -199 -6 -423 11 -452 3 -4 14 -39 24 -76 10 -37 44 -120 74 -184
146 -306 171 -393 172 -614 0 -226 -20 -317 -84 -385 -34 -36 -43 -40 -87 -40
-86 0 -186 59 -297 175 -41 43 -107 129 -107 139 0 2 -27 62 -61 132 -34 71
-78 165 -99 209 -20 44 -47 101 -59 127 -21 43 -98 128 -148 163 -41 28 -136
55 -197 56 -116 2 -224 -27 -375 -98 -79 -38 -89 -40 -170 -38 l-87 1 -121 68
c-315 175 -495 195 -621 67 -69 -70 -83 -114 -87 -276 -5 -198 -15 -428 -19
-451 -2 -10 -7 -41 -10 -67 -4 -27 -9 -58 -12 -70 -2 -12 -6 -39 -9 -62 -3
-22 -8 -47 -10 -55 -2 -8 -7 -35 -10 -60 -3 -25 -8 -57 -11 -72 -54 -325 -60
-375 -69 -533 -13 -230 -14 -250 -20 -315 -3 -36 -7 -96 -10 -135 -3 -38 -7
-90 -9 -115 -3 -25 -8 -74 -11 -110 -4 -36 -13 -90 -20 -120 -8 -30 -16 -68
-18 -85 -6 -42 -52 -219 -72 -280 -60 -182 -148 -294 -217 -274 -40 11 -63 33
-105 98 -66 103 -81 169 -77 338 1 70 5 139 8 153 2 14 7 42 10 62 10 63 24
121 77 305 48 168 105 378 114 414 2 9 15 63 29 120 14 57 28 127 32 154 3 28
8 59 10 70 2 11 9 58 15 105 6 47 12 96 14 109 7 43 17 207 19 303 3 168 -15
280 -64 411 -17 46 -55 97 -178 240 -177 206 -170 198 -237 231 -72 34 -131
44 -306 52 -142 6 -163 9 -269 44 -149 50 -180 55 -395 66 -66 3 -122 7 -123
9 -2 2 -29 -5 -59 -16 -118 -40 -195 -127 -228 -257 -9 -34 -17 -70 -17 -80
-1 -23 12 -240 17 -289 24 -238 24 -595 0 -746 -2 -12 -6 -56 -10 -97 -3 -41
-8 -89 -10 -107 -3 -18 -7 -50 -10 -70 -3 -21 -10 -65 -16 -98 -5 -33 -12 -70
-14 -82 -9 -55 -48 -181 -71 -229 -27 -58 -84 -120 -124 -136 -56 -23 -169 -1
-221 42 -63 51 -114 177 -134 330 -13 98 -7 362 10 460 1 8 6 40 10 70 3 30 8
66 10 80 55 357 63 637 24 809 -6 25 -13 57 -15 70 -9 44 -54 146 -91 201 -20
30 -72 91 -117 134 -63 63 -98 88 -165 119 -46 21 -100 41 -120 43 -52 4 -162
13 -266 19 -49 3 -117 8 -150 10 -33 2 -105 7 -160 10 -55 3 -122 8 -150 10
-54 4 -188 13 -300 20 -244 14 -272 19 -350 58 -79 40 -173 155 -206 254 -41
122 20 271 175 434 64 67 73 72 331 199 146 71 312 146 368 165 131 46 360
116 364 111 2 -2 -9 -23 -25 -47 -84 -127 -79 -274 13 -373 14 -15 37 -45 49
-65 64 -100 221 -216 351 -258 63 -20 105 -26 200 -29 156 -5 242 15 320 71
17 12 83 41 147 65 140 51 181 85 245 206 71 136 106 262 112 413 1 17 5 22
17 17 18 -7 241 -8 289 -2 156 21 375 78 411 107 7 5 25 4 44 -2 25 -9 41 -9
66 0 25 9 39 9 55 1 140 -76 425 -96 749 -54 25 3 55 7 67 9 21 3 21 3 -5 -47
-82 -158 40 -402 292 -584 30 -21 57 -49 60 -60 7 -25 56 -76 89 -92 28 -14
87 -38 111 -46 27 -9 122 -20 176 -20 329 0 736 341 838 701 20 73 25 189 8
225 -12 26 42 33 124 17z m-5230 -1653 c14 -3 52 -7 84 -11 33 -3 73 -8 90
-10 30 -4 79 -10 174 -20 26 -3 67 -8 92 -12 25 -3 102 -7 172 -8 123 -2 129
-3 169 -31 68 -47 176 -171 193 -222 9 -25 15 -47 13 -49 -2 -1 -104 15 -228
37 -317 56 -319 57 -542 65 l-119 4 -156 72 c-86 40 -161 76 -166 80 -5 4 -10
33 -12 64 l-4 56 108 -5 c59 -3 118 -8 132 -10z m2305 -226 c44 -6 91 -12 105
-14 14 -2 77 -20 141 -39 63 -19 149 -38 190 -41 41 -4 90 -9 109 -11 19 -2
62 -7 95 -10 106 -10 170 -17 171 -19 12 -28 116 -158 178 -224 81 -84 101
-120 113 -194 3 -18 1 -28 -5 -24 -5 3 -27 8 -48 12 -78 12 -261 55 -336 80
-71 22 -163 46 -228 58 -14 2 -46 9 -72 15 -26 6 -91 18 -145 26 -54 8 -109
17 -123 20 -79 16 -216 23 -295 14 -34 -3 -40 -1 -41 16 -1 11 -4 43 -8 70
-19 162 -19 205 -1 246 l19 41 50 -6 c28 -3 87 -10 131 -16z"/>
<path d="M8825 8795 c-153 -32 -236 -77 -350 -190 -96 -95 -160 -192 -195
-294 -40 -120 11 -223 155 -316 39 -25 130 -64 165 -70 3 -1 31 -9 63 -18 161
-49 310 -67 412 -52 36 6 196 52 313 91 57 19 151 67 182 93 94 81 120 122
120 197 0 59 -26 113 -85 179 -25 28 -45 57 -45 66 0 28 -30 76 -68 111 -73
66 -260 165 -353 188 -24 6 -53 13 -64 16 -43 11 -193 10 -250 -1z"/>
<path d="M11771 8609 c-162 -32 -321 -109 -406 -194 -73 -73 -111 -142 -131
-236 -31 -148 7 -272 111 -367 131 -120 428 -221 655 -223 100 -1 153 14 235
66 28 18 63 35 78 39 41 10 114 89 128 139 24 89 7 194 -52 310 -109 216 -305
428 -429 463 -45 13 -133 15 -189 3z"/>
<path d="M10090 8104 c-137 -24 -236 -61 -274 -100 -34 -35 -66 -107 -66 -147
0 -47 27 -101 78 -158 85 -93 174 -129 327 -131 186 -2 370 32 459 84 56 33
116 87 116 104 0 6 6 17 14 23 18 15 25 68 14 108 -11 40 -64 95 -118 123 -23
12 -97 40 -163 62 -103 34 -137 41 -217 43 -52 1 -129 -3 -170 -11z"/>
<path d="M6185 12513 c-57 -6 -170 -36 -224 -59 -89 -40 -244 -141 -281 -185
-3 -3 -46 -37 -96 -75 -235 -177 -446 -238 -607 -175 -65 25 -55 7 29 -55 97
-72 180 -115 261 -134 73 -17 190 -20 244 -6 l45 12 -12 -53 c-16 -69 -16
-219 0 -280 57 -215 258 -341 606 -380 85 -10 253 -9 309 1 165 29 424 174
490 272 68 103 94 247 70 394 -5 30 -11 73 -14 95 -3 22 -8 48 -12 59 -3 13
-1 17 8 14 8 -3 13 -13 11 -23 -3 -13 1 -16 13 -11 9 3 18 6 21 6 2 0 1 6 -1
13 -3 7 14 24 39 39 41 25 44 29 37 55 -21 74 -106 198 -186 272 -119 110
-278 175 -477 196 -66 7 -232 12 -273 8z m360 -379 c17 -3 57 -12 90 -21 53
-14 86 -27 197 -76 21 -9 26 -17 22 -32 -32 -114 -270 -206 -388 -150 -65 31
-91 120 -62 218 22 74 36 89 79 76 17 -6 46 -13 62 -15z"/>
<path d="M11327 12454 c-1 -1 -26 -5 -55 -9 -71 -9 -156 -31 -195 -51 -45 -24
-126 -110 -181 -193 -54 -81 -151 -261 -141 -261 4 0 2 -7 -5 -15 -15 -18 -3
-19 34 -5 32 12 32 11 5 -88 -50 -185 11 -309 221 -447 187 -122 292 -167 392
-166 70 0 354 64 423 95 95 43 165 141 205 288 10 40 21 96 23 123 3 37 8 49
18 46 43 -12 132 -19 208 -16 92 3 160 23 222 66 42 28 211 180 206 185 -2 2
-23 -6 -48 -19 -60 -29 -165 -32 -250 -7 -68 21 -162 81 -244 156 -178 163
-372 259 -601 299 -75 13 -230 25 -237 19z m401 -513 c34 -10 84 -33 112 -50
27 -17 55 -31 60 -31 16 0 1 -49 -29 -99 -36 -62 -98 -94 -168 -88 -60 4 -85
22 -115 81 -26 51 -19 113 19 167 32 44 40 46 121 20z"/>
<path d="M8888 12015 c-2 -1 -39 -5 -83 -9 -44 -3 -91 -8 -105 -10 -14 -3 -38
-7 -55 -9 -145 -23 -260 -59 -355 -110 -58 -31 -250 -170 -339 -246 -146 -123
-207 -283 -154 -402 26 -58 64 -94 133 -127 78 -37 185 -36 290 3 41 15 93 34
115 42 57 21 102 23 154 7 84 -26 121 -74 229 -295 76 -155 113 -203 188 -239
60 -28 86 -32 201 -36 86 -3 110 0 155 18 106 43 181 116 258 253 63 110 122
176 194 212 46 23 62 26 186 27 152 1 185 11 250 76 118 118 88 299 -74 454
-191 182 -476 307 -816 360 -145 23 -361 40 -372 31z"/>
</g>
</svg>
